PathFileType	4	(X/Y/Z)	C:\Users\italobelli\Desktop\GitHub\PTbot_officialCBL\Personal_Results\SHRUG03_noisy2.trc
DataRate	CameraRate	NumFrames	NumMarkers	Units	OrigDataRate	OrigDataStartFrame	OrigNumFrames
110.888889	110.888889	29	9	m	110.888889	188	500
Frame#	Time		gu		centelbow		EpL		centpxt8		centijc7		ts		aa		ai		ij
			X1	Y1	Z1	X2	Y2	Z2	X3	Y3	Z3	X4	Y4	Z4	X5	Y5	Z5	X6	Y6	Z6	X7	Y7	Z7	X8	Y8	Z8	X9	Y9	Z9

188	1.6864	-0.065816	0.050812	0.16322	-0.10076	-0.18975	0.23665	-0.077946	-0.18098	0.25774	-0.046816	-0.15316	-0.008669	-0.046816	0.031938	-0.008669	-0.1273	0.055323	0.047011	-0.089257	0.089065	0.15564	-0.14423	-0.048599	0.090404	0	0	0
189	1.6954	-0.065887	0.050822	0.16328	-0.10069	-0.18961	0.23654	-0.077897	-0.18083	0.25766	-0.046816	-0.15316	-0.008669	-0.046816	0.031938	-0.008669	-0.12731	0.055319	0.046986	-0.089335	0.089051	0.15565	-0.14431	-0.048601	0.09035	0	0	0
190	1.7044	-0.065961	0.050818	0.16333	-0.10063	-0.18947	0.23643	-0.077858	-0.1807	0.25757	-0.046816	-0.15316	-0.008669	-0.046816	0.031938	-0.008669	-0.12733	0.055315	0.046962	-0.089416	0.089025	0.15567	-0.1444	-0.048605	0.090288	0	0	0
191	1.7134	-0.066037	0.050798	0.16339	-0.10057	-0.18936	0.23631	-0.077828	-0.18058	0.25748	-0.046816	-0.15316	-0.008669	-0.046816	0.031938	-0.008669	-0.12734	0.055311	0.04694	-0.089499	0.088985	0.15569	-0.14449	-0.048612	0.090218	0	0	0
192	1.7224	-0.066117	0.050764	0.16345	-0.10052	-0.18925	0.23617	-0.077807	-0.18048	0.25738	-0.046816	-0.15316	-0.008669	-0.046816	0.031938	-0.008669	-0.12735	0.055306	0.046921	-0.089585	0.088933	0.15572	-0.14459	-0.04862	0.09014	0	0	0
193	1.7315	-0.066198	0.050715	0.16351	-0.10049	-0.18916	0.23603	-0.077796	-0.18039	0.25726	-0.046816	-0.15316	-0.008669	-0.046816	0.031938	-0.008669	-0.12737	0.055301	0.046903	-0.089673	0.088869	0.15575	-0.14469	-0.048631	0.090055	0	0	0
194	1.7405	-0.066283	0.050652	0.16357	-0.10045	-0.18909	0.23587	-0.077794	-0.18032	0.25714	-0.046816	-0.15316	-0.008669	-0.046816	0.031938	-0.008669	-0.12738	0.055296	0.046887	-0.089763	0.088792	0.15579	-0.14479	-0.048644	0.089963	0	0	0
195	1.7495	-0.066369	0.050574	0.16362	-0.10043	-0.18903	0.23571	-0.077801	-0.18027	0.25701	-0.046816	-0.15316	-0.008669	-0.046816	0.031938	-0.008669	-0.1274	0.05529	0.046873	-0.089856	0.088702	0.15583	-0.1449	-0.04866	0.089863	0	0	0
196	1.7585	-0.066458	0.050483	0.16368	-0.10042	-0.18898	0.23554	-0.077817	-0.18023	0.25687	-0.046816	-0.15316	-0.008669	-0.046816	0.031938	-0.008669	-0.12741	0.055283	0.04686	-0.089951	0.088601	0.15587	-0.14501	-0.048678	0.089756	0	0	0
197	1.7675	-0.06655	0.050378	0.16374	-0.10041	-0.18895	0.23536	-0.077843	-0.18021	0.25673	-0.046816	-0.15316	-0.008669	-0.046816	0.031938	-0.008669	-0.12743	0.055276	0.04685	-0.090048	0.088487	0.15591	-0.14513	-0.048699	0.089642	0	0	0
198	1.7766	-0.066643	0.050259	0.1638	-0.10042	-0.18894	0.23517	-0.077877	-0.18021	0.25657	-0.046816	-0.15316	-0.008669	-0.046816	0.031938	-0.008669	-0.12744	0.055269	0.046842	-0.090147	0.088362	0.15596	-0.14524	-0.048722	0.089522	0	0	0
199	1.7856	-0.066739	0.050127	0.16386	-0.10043	-0.18894	0.23497	-0.077921	-0.18022	0.25641	-0.046816	-0.15316	-0.008669	-0.046816	0.031938	-0.008669	-0.12746	0.055261	0.046836	-0.090249	0.088224	0.15602	-0.14537	-0.048747	0.089394	0	0	0
200	1.7946	-0.066837	0.049981	0.16392	-0.10045	-0.18895	0.23476	-0.077975	-0.18025	0.25624	-0.046816	-0.15316	-0.008669	-0.046816	0.031938	-0.008669	-0.12748	0.055253	0.046831	-0.090352	0.088076	0.15607	-0.14549	-0.048776	0.089261	0	0	0
201	1.8036	-0.066937	0.049823	0.16398	-0.10048	-0.18898	0.23455	-0.078037	-0.18029	0.25607	-0.046816	-0.15316	-0.008669	-0.046816	0.031938	-0.008669	-0.12749	0.055244	0.046829	-0.090458	0.087915	0.15613	-0.14562	-0.048806	0.089121	0	0	0
202	1.8126	-0.067039	0.049652	0.16404	-0.10052	-0.18902	0.23432	-0.078108	-0.18035	0.25588	-0.046816	-0.15316	-0.008669	-0.046816	0.031938	-0.008669	-0.12751	0.055235	0.046828	-0.090566	0.087743	0.1562	-0.14574	-0.04884	0.088975	0	0	0
203	1.8216	-0.067142	0.049468	0.1641	-0.10057	-0.18908	0.23409	-0.078189	-0.18042	0.25569	-0.046816	-0.15316	-0.008669	-0.046816	0.031938	-0.008669	-0.12753	0.055225	0.046829	-0.090676	0.08756	0.15626	-0.14587	-0.048876	0.088823	0	0	0
204	1.8307	-0.067248	0.049272	0.16416	-0.10062	-0.18915	0.23385	-0.078279	-0.18051	0.25549	-0.046816	-0.15316	-0.008669	-0.046816	0.031938	-0.008669	-0.12755	0.055214	0.046833	-0.090788	0.087365	0.15633	-0.14601	-0.048914	0.088665	0	0	0
205	1.8397	-0.067355	0.049063	0.16421	-0.10069	-0.18924	0.23361	-0.078378	-0.18062	0.25529	-0.046816	-0.15316	-0.008669	-0.046816	0.031938	-0.008669	-0.12756	0.055204	0.046838	-0.090901	0.08716	0.15641	-0.14614	-0.048956	0.088502	0	0	0
206	1.8487	-0.067464	0.048843	0.16427	-0.10076	-0.18934	0.23336	-0.078486	-0.18074	0.25508	-0.046816	-0.15316	-0.008669	-0.046816	0.031938	-0.008669	-0.12758	0.055192	0.046845	-0.091017	0.086943	0.15648	-0.14628	-0.049	0.088333	0	0	0
207	1.8577	-0.067574	0.04861	0.16433	-0.10084	-0.18945	0.2331	-0.078603	-0.18088	0.25486	-0.046816	-0.15316	-0.008669	-0.046816	0.031938	-0.008669	-0.1276	0.05518	0.046855	-0.091135	0.086716	0.15656	-0.14642	-0.049047	0.088159	0	0	0
208	1.8667	-0.067686	0.048366	0.16439	-0.10094	-0.18959	0.23284	-0.07873	-0.18103	0.25464	-0.046816	-0.15316	-0.008669	-0.046816	0.031938	-0.008669	-0.12762	0.055168	0.046866	-0.091254	0.086478	0.15664	-0.14656	-0.049097	0.087979	0	0	0
209	1.8758	-0.067799	0.04811	0.16445	-0.10104	-0.18973	0.23256	-0.078865	-0.1812	0.25441	-0.046816	-0.15316	-0.008669	-0.046816	0.031938	-0.008669	-0.12764	0.055155	0.046879	-0.091375	0.086229	0.15673	-0.1467	-0.049149	0.087795	0	0	0
210	1.8848	-0.067914	0.047844	0.1645	-0.10115	-0.18989	0.23229	-0.07901	-0.18139	0.25418	-0.046816	-0.15316	-0.008669	-0.046816	0.031938	-0.008669	-0.12766	0.055142	0.046894	-0.091498	0.08597	0.15682	-0.14684	-0.049205	0.087606	0	0	0
211	1.8938	-0.06803	0.047566	0.16456	-0.10126	-0.19007	0.23201	-0.079163	-0.18159	0.25394	-0.046816	-0.15316	-0.008669	-0.046816	0.031938	-0.008669	-0.12768	0.055127	0.046911	-0.091623	0.0857	0.15691	-0.14698	-0.049263	0.087412	0	0	0
212	1.9028	-0.068147	0.047277	0.16461	-0.10139	-0.19026	0.23172	-0.079326	-0.1818	0.25369	-0.046816	-0.15316	-0.008669	-0.046816	0.031938	-0.008669	-0.12771	0.055113	0.046931	-0.091749	0.08542	0.157	-0.14713	-0.049324	0.087214	0	0	0
213	1.9118	-0.068265	0.046977	0.16467	-0.10153	-0.19046	0.23143	-0.079498	-0.18204	0.25344	-0.046816	-0.15316	-0.008669	-0.046816	0.031938	-0.008669	-0.12773	0.055098	0.046952	-0.091877	0.085131	0.15709	-0.14727	-0.049388	0.087011	0	0	0
214	1.9208	-0.068384	0.046667	0.16472	-0.10167	-0.19068	0.23113	-0.079678	-0.18229	0.25319	-0.046816	-0.15316	-0.008669	-0.046816	0.031938	-0.008669	-0.12775	0.055082	0.046975	-0.092006	0.084831	0.15719	-0.14742	-0.049456	0.086805	0	0	0
215	1.9299	-0.068505	0.046346	0.16478	-0.10183	-0.19092	0.23082	-0.079868	-0.18255	0.25293	-0.046816	-0.15316	-0.008669	-0.046816	0.031938	-0.008669	-0.12777	0.055065	0.047	-0.092137	0.084521	0.15729	-0.14756	-0.049526	0.086594	0	0	0
216	1.9389	-0.068626	0.046016	0.16483	-0.10199	-0.19117	0.23052	-0.080067	-0.18283	0.25267	-0.046816	-0.15316	-0.008669	-0.046816	0.031938	-0.008669	-0.1278	0.055048	0.047028	-0.09227	0.084201	0.15739	-0.14771	-0.049599	0.086379	0	0	0
